# xmcd
#
# Track frame offsets: 
#        150
#        22605
#        41901
#        67744
#        88308
#        108298
#        129815
#        149157
#        170493
#        203190
#
# Disc length: 2919 seconds
#
# Revision: 0
# Processed by: cddbd v1.5.2PL0 Copyright (c) Steve Scherf et al.
# Submitted via: ExactAudioCopy v1.0b3
#
DISCID=850b650a
DTITLE=Torbjörn Carlsson - Presence
DYEAR=2005
DGENRE=Jazz
TTITLE0=Can't Stop Flying - The Entire Solution
TTITLE1=Perfectly Sad Eyes
TTITLE2=Love Explosion
TTITLE3=Dance Of The Circles
TTITLE4=Close To The Sun
TTITLE5=Conversation In Progress
TTITLE6=(Who's That) Man In The Middle
TTITLE7=We Are All In This Together
TTITLE8=Trilogy Of Dreams
TTITLE9=Sweet Dreams
EXTD=
EXTT0=
EXTT1=
EXTT2=
EXTT3=
EXTT4=
EXTT5=
EXTT6=
EXTT7=
EXTT8=
EXTT9=
PLAYORDER=
